# xmcd
#
# Track frame offsets:
#	150
#	12578
#	25080
#	40168
#	51623
#	64538
#	78398
#	87273
#	98238
#	120553
#	132588
#	145828
#	158873
#	171023
#	186578
#	196748
#
# Disc length: 2800 seconds
#
# Revision: 1
# Processed by: cddbd v1.4PL0 Copyright (c) Steve Scherf et al.
# Submitted via: audiograbber 1.81.03
#
DISCID=dc0aee10
DTITLE=The Platters - The Great Pretender
DYEAR=1993
DGENRE=Oldies
TTITLE0=Only You
TTITLE1=Twilight Time
TTITLE2=The Great Pretender
TTITLE3=Smoke Gets In Your Eyes
TTITLE4=Remember When
TTITLE5=Alone In The Night
TTITLE6=Sentimental Journey
TTITLE7=Red Sails In The Sunset
TTITLE8=Unchained Melody
TTITLE9=My Dream
TTITLE10=Enchanted
TTITLE11=So Many Tears
TTITLE12=(You've Got) The Magic Touch
TTITLE13=My Prayer
TTITLE14=If You Need Me
TTITLE15=I'm Sorry
EXTD=
EXTT0=
EXTT1=
EXTT2=
EXTT3=
EXTT4=
EXTT5=
EXTT6=
EXTT7=
EXTT8=
EXTT9=
EXTT10=
EXTT11=
EXTT12=
EXTT13=
EXTT14=
EXTT15=
PLAYORDER=
